<?xml version="1.0" encoding="UTF-8"?>
<svg version="1.1" xmlns="http://www.w3.org/2000/svg" width="120" height="90">
<path d="M0 0 C4.58325197 1.47870119 8.79042562 3.29380798 13.0625 5.5 C20.72514383 9.40170158 28.47365877 13.10541903 36.25610352 16.76171875 C37.11905029 17.1690625 37.98199707 17.57640625 38.87109375 17.99609375 C39.64380615 18.35888428 40.41651855 18.7216748 41.21264648 19.09545898 C43 20 43 20 44 21 C44.08868299 23.95705321 44.11520296 26.89065056 44.09765625 29.84765625 C44.0962413 30.7340831 44.09482635 31.62050995 44.09336853 32.53379822 C44.08775215 35.37673254 44.07519691 38.21958931 44.0625 41.0625 C44.05748711 42.98502491 44.05292384 44.90755104 44.04882812 46.83007812 C44.03777741 51.55341549 44.02050183 56.27669458 44 61 C33.22876769 55.95705818 22.51698779 50.81141227 11.875 45.5 C10.81410156 44.97180664 9.75320312 44.44361328 8.66015625 43.89941406 C7.67660156 43.40666992 6.69304688 42.91392578 5.6796875 42.40625 C4.80038574 41.96603516 3.92108398 41.52582031 3.01513672 41.07226562 C1 40 1 40 0 39 C-0.08865208 36.1156618 -0.11521296 33.25537842 -0.09765625 30.37109375 C-0.0962413 29.50686295 -0.09482635 28.64263214 -0.09336853 27.75221252 C-0.08775239 24.98060708 -0.07519719 22.2090812 -0.0625 19.4375 C-0.05748708 17.5631522 -0.05292381 15.68880315 -0.04882812 13.81445312 C-0.03777772 9.20960456 -0.0205023 4.60481579 0 0 Z M10 23 C10.44033992 24.98020421 10.44033992 24.98020421 12 27 C14.5863924 28.26152609 17.25200829 29.15643045 20 30 C20.33 29.01 20.66 28.02 21 27 C19.73308493 26.32591692 18.46129251 25.66099503 17.1875 25 C16.47980469 24.62875 15.77210937 24.2575 15.04296875 23.875 C12.91079271 22.80314642 12.91079271 22.80314642 10 23 Z M10 31 C10 31.99 10 32.98 10 34 C11.93108963 35.03290841 13.870118 36.05098672 15.8125 37.0625 C17.43091797 37.91521484 17.43091797 37.91521484 19.08203125 38.78515625 C21.98680243 40.36915789 21.98680243 40.36915789 25 39 C21.66463131 35.10873653 17.73789501 32.82900259 13 31 C12.01 31 11.02 31 10 31 Z " fill="#FB7521" transform="translate(10,29)"/>
<path d="M0 0 C0 6.93 0 13.86 0 21 C-2.97 21.12375 -2.97 21.12375 -6 21.25 C-12.87644425 21.80997103 -18.00262477 22.73969712 -22.78125 27.9375 C-26.53998579 32.76002894 -28.14180457 36.24501736 -28.125 42.4375 C-28.12757812 43.38496094 -28.13015625 44.33242187 -28.1328125 45.30859375 C-28.01473475 47.70140459 -27.68112635 49.71336153 -27 52 C-39.45849802 60 -39.45849802 60 -44 60 C-44 47.13 -44 34.26 -44 21 C-33.56843729 15.42032692 -23.10215791 9.99595206 -12.4375 4.875 C-11.43259521 4.38990967 -10.42769043 3.90481934 -9.39233398 3.4050293 C-7.98963257 2.73661011 -7.98963257 2.73661011 -6.55859375 2.0546875 C-5.31033813 1.45889893 -5.31033813 1.45889893 -4.03686523 0.85107422 C-2 0 -2 0 0 0 Z " fill="#F97625" transform="translate(102,29)"/>
<path d="M0 0 C4.5294991 2.57649645 7.75960969 6.41590849 9.296875 11.421875 C10.49036245 17.58027026 9.97647933 22.16485232 6.96484375 27.609375 C4.29675518 31.42792377 1.14495513 33.95168162 -3.3125 35.4375 C-10.76649418 36.10225679 -16.28741487 36.08183645 -22.3125 31.4375 C-26.42353467 27.10424724 -28.14541544 23.50934853 -28.625 17.5625 C-28.45788226 12.01628015 -26.56395571 7.9257176 -23 3.6875 C-16.09050107 -2.09719678 -8.41670355 -3.69125751 0 0 Z M-4.1171875 12.22265625 C-5.49634047 13.73972451 -6.8713571 15.2605635 -8.2421875 16.78515625 C-10.3125 18.4375 -10.3125 18.4375 -12.4296875 18.25 C-14.43527561 17.38451799 -16.38681127 16.46911896 -18.3125 15.4375 C-18.65759128 18.44545167 -18.65759128 18.44545167 -16.78125 20.04296875 C-16.1315625 20.56503906 -15.481875 21.08710937 -14.8125 21.625 C-13.6575 22.553125 -12.5025 23.48125 -11.3125 24.4375 C-7.3525 20.4775 -3.3925 16.5175 0.6875 12.4375 C0.3575 11.7775 0.0275 11.1175 -0.3125 10.4375 C-2.49859227 10.20308359 -2.49859227 10.20308359 -4.1171875 12.22265625 Z " fill="#F87726" transform="translate(104.3125,54.5625)"/>
<path d="M0 0 C0.59699707 0.33515625 1.19399414 0.6703125 1.80908203 1.015625 C2.46650391 1.3765625 3.12392578 1.7375 3.80126953 2.109375 C4.46642578 2.4909375 5.13158203 2.8725 5.81689453 3.265625 C6.50525391 3.6471875 7.19361328 4.02875 7.90283203 4.421875 C9.58882198 5.35853608 11.26626267 6.31055748 12.94189453 7.265625 C10.64094506 9.84118294 8.41077267 11.17159363 5.28564453 12.61328125 C3.8882605 13.26707764 3.8882605 13.26707764 2.46264648 13.93408203 C1.46579834 14.39411621 0.4689502 14.85415039 -0.55810547 15.328125 C-9.21149112 19.38126183 -17.72163674 23.61502998 -26.11669922 28.17993164 C-26.84373047 28.57172607 -27.57076172 28.96352051 -28.31982422 29.3671875 C-28.94848389 29.71088379 -29.57714355 30.05458008 -30.22485352 30.40869141 C-34.97968005 32.63128311 -34.97968005 32.63128311 -37.88916016 31.64477539 C-38.80036621 31.13418579 -38.80036621 31.13418579 -39.72998047 30.61328125 C-40.39384766 30.24912109 -41.05771484 29.88496094 -41.74169922 29.50976562 C-42.42361328 29.11982422 -43.10552734 28.72988281 -43.80810547 28.328125 C-44.50548828 27.94205078 -45.20287109 27.55597656 -45.92138672 27.15820312 C-47.63970667 26.20488863 -49.34974351 25.23667154 -51.05810547 24.265625 C-50.70284381 21.71554374 -50.47011835 20.58016823 -48.38374329 18.98736572 C-47.65793564 18.62318542 -46.93212799 18.25900513 -46.18432617 17.88378906 C-45.36289627 17.4636554 -44.54146637 17.04352173 -43.69514465 16.61065674 C-42.80042953 16.17195251 -41.90571442 15.73324829 -40.98388672 15.28125 C-40.06729782 14.82079285 -39.15070892 14.36033569 -38.2063446 13.88592529 C-36.26359948 12.91436184 -34.31734007 11.94979902 -32.36791992 10.99169922 C-29.39064479 9.52549368 -26.42816137 8.03222655 -23.46630859 6.53515625 C-21.57716028 5.59469384 -19.68721093 4.65583842 -17.79638672 3.71875 C-16.91179276 3.27194885 -16.02719879 2.82514771 -15.11579895 2.36480713 C-9.92056966 -0.16411004 -5.75174124 -2.05234136 0 0 Z " fill="#FB7521" transform="translate(61.05810546875,0.734375)"/>
<path d="M0 0 C2.58129883 2.18896484 2.58129883 2.18896484 3.58129883 5.18896484 C1.45780736 7.49651512 -0.54581962 8.94715886 -3.3359375 10.36547852 C-4.11717484 10.76566696 -4.89841217 11.16585541 -5.70332336 11.57817078 C-6.54396835 12.00016251 -7.38461334 12.42215424 -8.25073242 12.85693359 C-9.12009933 13.29660965 -9.98946625 13.73628571 -10.88517761 14.18928528 C-12.72361642 15.11609217 -14.5636932 16.03965606 -16.40527344 16.96020508 C-19.21665111 18.36917284 -22.01787574 19.79703307 -24.8190918 21.22607422 C-26.60821471 22.12503711 -28.39791014 23.02286166 -30.18823242 23.91943359 C-31.02280472 24.34749802 -31.85737701 24.77556244 -32.71723938 25.21659851 C-37.09153352 27.37821468 -40.42348774 28.89419837 -45.41870117 28.18896484 C-47.47680664 27.45458984 -47.47680664 27.45458984 -49.28588867 26.43896484 C-49.94331055 26.07802734 -50.60073242 25.71708984 -51.27807617 25.34521484 C-51.94323242 24.96365234 -52.60838867 24.58208984 -53.29370117 24.18896484 C-53.98206055 23.80740234 -54.67041992 23.42583984 -55.37963867 23.03271484 C-57.06562862 22.09605376 -58.74306931 21.14403237 -60.41870117 20.18896484 C-53.61357192 14.90848204 -45.74452048 11.17157125 -38.14208984 7.17871094 C-36.12597107 6.10636598 -34.12140428 5.01200044 -32.12939453 3.89550781 C-11.64152389 -7.56113429 -11.64152389 -7.56113429 0 0 Z " fill="#FA7624" transform="translate(98.418701171875,18.81103515625)"/>
<path d="M0 0 C0.99 0.495 0.99 0.495 2 1 C1.67 12.88 1.34 24.76 1 37 C3.31 37.66 5.62 38.32 8 39 C8 35.37 8 31.74 8 28 C8.66 28 9.32 28 10 28 C9.67 26.35 9.34 24.7 9 23 C11.76264289 22.40267181 14.16032769 22 17 22 C17.33 21.34 17.66 20.68 18 20 C18.66 20 19.32 20 20 20 C23.48214286 26.5625 23.48214286 26.5625 22.1875 30.9375 C21.795625 31.948125 21.40375 32.95875 21 34 C21.66 34 22.32 34 23 34 C23 34.66 23 35.32 23 36 C24.32 36.33 25.64 36.66 27 37 C27 38.32 27 39.64 27 41 C26.01 41.66 25.02 42.32 24 43 C24 43.66 24 44.32 24 45 C26.97 44.505 26.97 44.505 30 44 C29.34 45.32 28.68 46.64 28 48 C27.34 48 26.68 48 26 48 C26 48.66 26 49.32 26 50 C27.65 50.66 29.3 51.32 31 52 C31 52.66 31 53.32 31 54 C26.86766258 52.70594303 23.06744201 51.15716783 19.19921875 49.21484375 C18.14025391 48.68439453 17.08128906 48.15394531 15.99023438 47.60742188 C14.90033203 47.05634766 13.81042969 46.50527344 12.6875 45.9375 C11.57826172 45.38255859 10.46902344 44.82761719 9.32617188 44.25585938 C1.14043257 40.14043257 1.14043257 40.14043257 0 39 C-0.08865208 36.1156618 -0.11521296 33.25537842 -0.09765625 30.37109375 C-0.0962413 29.50686295 -0.09482635 28.64263214 -0.09336853 27.75221252 C-0.08775239 24.98060708 -0.07519719 22.2090812 -0.0625 19.4375 C-0.05748708 17.5631522 -0.05292381 15.68880315 -0.04882812 13.81445312 C-0.03777772 9.20960456 -0.0205023 4.60481579 0 0 Z M10 23 C10.44033992 24.98020421 10.44033992 24.98020421 12 27 C14.5863924 28.26152609 17.25200829 29.15643045 20 30 C20.33 29.01 20.66 28.02 21 27 C19.73308493 26.32591692 18.46129251 25.66099503 17.1875 25 C16.47980469 24.62875 15.77210937 24.2575 15.04296875 23.875 C12.91079271 22.80314642 12.91079271 22.80314642 10 23 Z M10 31 C10 31.99 10 32.98 10 34 C11.93108963 35.03290841 13.870118 36.05098672 15.8125 37.0625 C17.43091797 37.91521484 17.43091797 37.91521484 19.08203125 38.78515625 C21.98680243 40.36915789 21.98680243 40.36915789 25 39 C21.66463131 35.10873653 17.73789501 32.82900259 13 31 C12.01 31 11.02 31 10 31 Z " fill="#F07D35" transform="translate(10,29)"/>
<path d="M0 0 C-2.21764898 2.43248801 -4.3786868 3.89166558 -7.30029297 5.3918457 C-8.59711502 6.0618737 -8.59711502 6.0618737 -9.9201355 6.74543762 C-10.85141266 7.21745102 -11.78268982 7.68946442 -12.7421875 8.17578125 C-13.70271027 8.66459274 -14.66323303 9.15340424 -15.65286255 9.6570282 C-17.68369247 10.68660124 -19.71628304 11.7127077 -21.75048828 12.7355957 C-24.86479351 14.3073489 -27.96537476 15.90420606 -31.06640625 17.50195312 C-33.0408695 18.49897607 -35.0161052 19.49447109 -36.9921875 20.48828125 C-37.9194162 20.9704158 -38.8466449 21.45255035 -39.80197144 21.94929504 C-40.67282379 22.38021957 -41.54367615 22.8111441 -42.44091797 23.25512695 C-43.20242157 23.6413472 -43.96392517 24.02756744 -44.74850464 24.42549133 C-47.74470351 25.19002421 -49.29209483 24.35581797 -52 23 C-49.78235102 20.56751199 -47.6213132 19.10833442 -44.69970703 17.6081543 C-43.40288498 16.9381263 -43.40288498 16.9381263 -42.0798645 16.25456238 C-41.14858734 15.78254898 -40.21731018 15.31053558 -39.2578125 14.82421875 C-38.29728973 14.33540726 -37.33676697 13.84659576 -36.34713745 13.3429718 C-34.31630753 12.31339876 -32.28371696 11.2872923 -30.24951172 10.2644043 C-27.13520649 8.6926511 -24.03462524 7.09579394 -20.93359375 5.49804688 C-18.9591305 4.50102393 -16.9838948 3.50552891 -15.0078125 2.51171875 C-14.0805838 2.0295842 -13.1533551 1.54744965 -12.19802856 1.05070496 C-11.32717621 0.61978043 -10.45632385 0.1888559 -9.55908203 -0.25512695 C-8.79757843 -0.6413472 -8.03607483 -1.02756744 -7.25149536 -1.42549133 C-4.25529649 -2.19002421 -2.70790517 -1.35581797 0 0 Z " fill="#EB803D" transform="translate(82,12)"/>
<path d="M0 0 C1.32 0.33 2.64 0.66 4 1 C6.1021386 7.30641581 7.17159876 13.48520372 5 20 C4.360625 20.103125 3.72125 20.20625 3.0625 20.3125 C2.381875 20.539375 1.70125 20.76625 1 21 C0.67 21.99 0.34 22.98 0 24 C-1.32 24 -2.64 24 -4 24 C-4 22.68 -4 21.36 -4 20 C-5.32 20 -6.64 20 -8 20 C-8 19.01 -8 18.02 -8 17 C-7.01 16.34 -6.02 15.68 -5 15 C-4.835 14.175 -4.67 13.35 -4.5 12.5 C-4.335 11.675 -4.17 10.85 -4 10 C-3.01 9.34 -2.02 8.68 -1 8 C-0.83333333 5 -0.83333333 5 -1 2 C-0.67 1.34 -0.34 0.68 0 0 Z " fill="#FC741F" transform="translate(106,60)"/>
<path d="M0 0 C2.71631546 0.90543849 5.34771188 1.92474806 8 3 C8 3.99 8 4.98 8 6 C6.68 6.33 5.36 6.66 4 7 C3.64393187 11.96551325 3.64393187 11.96551325 5.5 16.4375 C5.995 16.953125 6.49 17.46875 7 18 C6.34 18 5.68 18 5 18 C5.33 19.32 5.66 20.64 6 22 C5.01 22 4.02 22 3 22 C2.67 20.68 2.34 19.36 2 18 C1.01 18 0.02 18 -1 18 C-3.46347215 12.61115468 -3.54359976 9.18875434 -1.5 3.6875 C-1.005 2.470625 -0.51 1.25375 0 0 Z " fill="#FC741E" transform="translate(80,61)"/>
<path d="M0 0 C-1 3 -1 3 -2.8125 4.1875 C-5 5 -5 5 -9 5 C-9.268125 5.7425 -9.53625 6.485 -9.8125 7.25 C-11 10 -11 10 -12.6875 12 C-14.29810319 13.98950315 -14.29810319 13.98950315 -13.6875 16.75 C-13.3471875 17.86375 -13.3471875 17.86375 -13 19 C-17.8274799 17.58707905 -21.7162359 15.57025846 -26 13 C-23.22548839 10.81333556 -20.46059568 9.10191158 -17.3046875 7.51953125 C-16.42425781 7.07802734 -15.54382812 6.63652344 -14.63671875 6.18164062 C-13.72535156 5.72982422 -12.81398438 5.27800781 -11.875 4.8125 C-10.95589844 4.34908203 -10.03679688 3.88566406 -9.08984375 3.40820312 C-8.21199219 2.97056641 -7.33414063 2.53292969 -6.4296875 2.08203125 C-5.62772949 1.68218018 -4.82577148 1.2823291 -3.99951172 0.87036133 C-2 0 -2 0 0 0 Z " fill="#F07D36" transform="translate(64,26)"/>
<path d="M0 0 C2.64 0 5.28 0 8 0 C3.35298784 3.67815269 -1.8459624 6.10710154 -7.125 8.75 C-8.13949219 9.26949219 -9.15398437 9.78898437 -10.19921875 10.32421875 C-11.16730469 10.81019531 -12.13539062 11.29617187 -13.1328125 11.796875 C-14.01855957 12.24385742 -14.90430664 12.69083984 -15.81689453 13.15136719 C-16.53731934 13.43141602 -17.25774414 13.71146484 -18 14 C-18.66 13.67 -19.32 13.34 -20 13 C-19.443125 12.46375 -18.88625 11.9275 -18.3125 11.375 C-15.84073196 8.99506878 -15.84073196 8.99506878 -13.875 5.6875 C-11 3 -11 3 -8.45703125 2.83984375 C-5.92851149 3.10018499 -3.48494134 3.46923583 -1 4 C-0.67 2.68 -0.34 1.36 0 0 Z " fill="#F47A31" transform="translate(81,31)"/>
<path d="M0 0 C0 0.66 0 1.32 0 2 C-1.98 2.66 -3.96 3.32 -6 4 C-5.34 5.98 -4.68 7.96 -4 10 C-4.66 10 -5.32 10 -6 10 C-6 10.99 -6 11.98 -6 13 C-5.34 13 -4.68 13 -4 13 C-4 13.66 -4 14.32 -4 15 C-8.05281712 13.77472971 -11.44360764 12.30119506 -15 10 C-14.87109375 8.203125 -14.87109375 8.203125 -14 6 C-11.34765625 4.296875 -11.34765625 4.296875 -8.0625 2.75 C-6.98097656 2.22921875 -5.89945313 1.7084375 -4.78515625 1.171875 C-2 0 -2 0 0 0 Z " fill="#F07F35" transform="translate(25,15)"/>
<path d="M0 0 C0.66 0.33 1.32 0.66 2 1 C1.1850708 1.67506592 0.3701416 2.35013184 -0.46948242 3.0456543 C-3.6363945 6.74298214 -3.58710973 8.466467 -3.48828125 13.26953125 C-3.48120651 13.95053391 -3.47413177 14.63153656 -3.46684265 15.33317566 C-3.43900069 17.49409995 -3.37629527 19.65236822 -3.3125 21.8125 C-3.28740332 23.28316552 -3.26459253 24.75387193 -3.24414062 26.22460938 C-3.18921188 29.81725957 -3.10301647 33.40837028 -3 37 C-0.69 37.33 1.62 37.66 4 38 C1.02881405 40.53101025 -1.18416621 41.34820749 -5 42 C-5.12352165 36.50081611 -5.2143009 31.00243782 -5.2746582 25.50219727 C-5.29981578 23.63096046 -5.33394593 21.75982205 -5.37719727 19.88891602 C-5.43779677 17.20043697 -5.46619603 14.51325564 -5.48828125 11.82421875 C-5.51408768 10.98662521 -5.5398941 10.14903168 -5.56648254 9.28605652 C-5.56762695 6.9206543 -5.56762695 6.9206543 -5 3 C-2.59448242 0.88598633 -2.59448242 0.88598633 0 0 Z " fill="#E78041" transform="translate(63,47)"/>
<path d="M0 0 C0.99 0.495 0.99 0.495 2 1 C1.67 12.88 1.34 24.76 1 37 C3.31 37.66 5.62 38.32 8 39 C8.33 39.99 8.66 40.98 9 42 C9.66 42 10.32 42 11 42 C11 42.66 11 43.32 11 44 C3.05173335 41.59703566 3.05173335 41.59703566 0 39 C-0.45276149 35.87273258 -0.58441015 33.29581572 -0.48828125 30.17578125 C-0.48120651 29.31438034 -0.47413177 28.45297943 -0.46684265 27.56547546 C-0.43884839 24.81360087 -0.37610323 22.06375967 -0.3125 19.3125 C-0.28742352 17.44729501 -0.26460921 15.58205813 -0.24414062 13.71679688 C-0.18900551 9.14374752 -0.10270033 4.5722185 0 0 Z " fill="#E18245" transform="translate(10,29)"/>
<path d="M0 0 C1.32 0 2.64 0 4 0 C4 0.66 4 1.32 4 2 C4.99 2 5.98 2 7 2 C7 2.66 7 3.32 7 4 C7.66 4 8.32 4 9 4 C9.33 5.32 9.66 6.64 10 8 C9.01 8.66 8.02 9.32 7 10 C3.8125 9.125 3.8125 9.125 1 8 C1 7.34 1 6.68 1 6 C0.34 6 -0.32 6 -1 6 C-1.33 5.01 -1.66 4.02 -2 3 C-1.34 3 -0.68 3 0 3 C0 2.01 0 1.02 0 0 Z " fill="#FB7420" transform="translate(20,65)"/>
<path d="M0 0 C3.79985782 3.30422419 3.90161806 5.81941671 4.3125 10.75 C4.2520055 16.14409264 2.05367224 20.82869498 -1.63671875 24.73046875 C-2.08660156 25.14941406 -2.53648438 25.56835938 -3 26 C-3.66 25.67 -4.32 25.34 -5 25 C-4.01 21.535 -4.01 21.535 -3 18 C-1.68 18.33 -0.36 18.66 1 19 C1.09507063 12.56688704 1.15316726 6.34241995 0 0 Z " fill="#EC8544" transform="translate(110,61)"/>
<path d="M0 0 C4.05281712 1.22527029 7.44360764 2.69880494 11 5 C8.52010087 7.85818883 5.86353122 9.19893393 2.4375 10.75 C1.46683594 11.19859375 0.49617188 11.6471875 -0.50390625 12.109375 C-1.32761719 12.40328125 -2.15132812 12.6971875 -3 13 C-3.66 12.67 -4.32 12.34 -5 12 C-4 10 -4 10 -1.5625 9.1875 C1.23329232 8.21535469 1.23329232 8.21535469 2.3125 5.375 C2.539375 4.59125 2.76625 3.8075 3 3 C2.01 2.01 1.02 1.02 0 0 Z " fill="#EC8440" transform="translate(63,3)"/>
<path d="M0 0 C2.375 1.5 2.375 1.5 4 3 C1.03 2.34 -1.94 1.68 -5 1 C-5.66 2.32 -6.32 3.64 -7 5 C-8.30078125 6.73828125 -8.30078125 6.73828125 -10 8 C-12.48046875 8.29296875 -12.48046875 8.29296875 -15.1875 8.1875 C-16.08855469 8.16042969 -16.98960938 8.13335937 -17.91796875 8.10546875 C-18.60503906 8.07066406 -19.29210938 8.03585937 -20 8 C-14.47450488 3.65853955 -7.29652271 -1.38981385 0 0 Z " fill="#EE813C" transform="translate(59,0)"/>
<path d="M0 0 C2.33333333 0 4.66666667 0 7 0 C6.34 1.32 5.68 2.64 5 4 C4.34 4 3.68 4 3 4 C3 4.66 3 5.32 3 6 C5.475 6.99 5.475 6.99 8 8 C8 8.66 8 9.32 8 10 C3.56909529 8.79157144 1.01887244 7.48331435 -2 4 C-1.34 2.68 -0.68 1.36 0 0 Z " fill="#F37A2B" transform="translate(33,73)"/>
<path d="M0 0 C2.64 0 5.28 0 8 0 C5.10414095 2.29648357 2.1827969 4.04347557 -1.125 5.6875 C-2.42824219 6.34298828 -2.42824219 6.34298828 -3.7578125 7.01171875 C-6 8 -6 8 -8 8 C-8.33 7.01 -8.66 6.02 -9 5 C-6.36 4.67 -3.72 4.34 -1 4 C-0.67 2.68 -0.34 1.36 0 0 Z " fill="#EA7F3E" transform="translate(81,31)"/>
<path d="M0 0 C2.9375 0.8125 2.9375 0.8125 6 2 C6.33 2.99 6.66 3.98 7 5 C4.45368965 7.97069541 1.57769851 9.4775751 -2 11 C-2.66 10.67 -3.32 10.34 -4 10 C-3.67 9.34 -3.34 8.68 -3 8 C-2.01 8 -1.02 8 0 8 C0 7.34 0 6.68 0 6 C1.32 6 2.64 6 4 6 C3.67 4.68 3.34 3.36 3 2 C2.01 2 1.02 2 0 2 C0 1.34 0 0.68 0 0 Z " fill="#E88546" transform="translate(95,19)"/>
<path d="M0 0 C0 0.66 0 1.32 0 2 C-1.65 2.33 -3.3 2.66 -5 3 C-5 3.66 -5 4.32 -5 5 C-4.01 5.33 -3.02 5.66 -2 6 C-3.98 6.66 -5.96 7.32 -8 8 C-8.99 7.01 -9.98 6.02 -11 5 C-9.54462432 4.16151196 -8.08559627 3.32936066 -6.625 2.5 C-5.81289063 2.0359375 -5.00078125 1.571875 -4.1640625 1.09375 C-2 0 -2 0 0 0 Z " fill="#E3884B" transform="translate(41,29)"/>
<path d="M0 0 C0.99 0 1.98 0 3 0 C3 1.98 3 3.96 3 6 C-5.57142857 4.14285714 -5.57142857 4.14285714 -9 1 C-6.03 1.33 -3.06 1.66 0 2 C0 1.34 0 0.68 0 0 Z " fill="#F07B32" transform="translate(50,82)"/>
<path d="M0 0 C1.299375 -0.02126953 1.299375 -0.02126953 2.625 -0.04296875 C5 0.1875 5 0.1875 8 2.1875 C7.04738281 2.24808594 6.09476563 2.30867188 5.11328125 2.37109375 C3.85902344 2.45488281 2.60476562 2.53867187 1.3125 2.625 C0.07113281 2.70621094 -1.17023438 2.78742187 -2.44921875 2.87109375 C-5.38180337 3.13241317 -8.13441617 3.53548379 -11 4.1875 C-7.67302146 0.54366636 -4.82795286 0.03592227 0 0 Z " fill="#E6884C" transform="translate(95,52.8125)"/>
<path d="M0 0 C1.65 0 3.3 0 5 0 C1.58983503 2.86453858 -1.90694544 4.34703566 -6 6 C-7.32 5.01 -8.64 4.02 -10 3 C-7.24075815 1.19588033 -6.11027897 0.9872755 -2.75 1.375 C-1.38875 1.684375 -1.38875 1.684375 0 2 C0 1.34 0 0.68 0 0 Z " fill="#EE8438" transform="translate(31,27)"/>
<path d="M0 0 C1.051875 0.5878125 1.051875 0.5878125 2.125 1.1875 C-0.04924117 3.68787734 -1.60545798 4.62378586 -4.875 5.1875 C-4.875 4.5275 -4.875 3.8675 -4.875 3.1875 C-6.195 2.8575 -7.515 2.5275 -8.875 2.1875 C-3.58269231 -1.0125 -3.58269231 -1.0125 0 0 Z " fill="#E6894B" transform="translate(79.875,10.8125)"/>
<path d="M0 0 C0.33 0.66 0.66 1.32 1 2 C0.33333333 4 -0.33333333 6 -1 8 C-1.25196129 10.70953551 -1.25196129 10.70953551 -1 13 C-0.67 13.33 -0.34 13.66 0 14 C0.04080783 15.99958364 0.04254356 18.00045254 0 20 C-2.84194886 17.15805114 -2.98380458 15.24293131 -3.25 11.25 C-3.21772968 6.89350724 -1.93461671 3.86923341 0 0 Z " fill="#E7844A" transform="translate(79,61)"/>
<path d="M0 0 C1.32 0.66 2.64 1.32 4 2 C3.34 2 2.68 2 2 2 C2 2.66 2 3.32 2 4 C3.65 3.67 5.3 3.34 7 3 C7 3.99 7 4.98 7 6 C7.66 6 8.32 6 9 6 C9 6.66 9 7.32 9 8 C4.94718288 6.77472971 1.55639236 5.30119506 -2 3 C-1.34 2.67 -0.68 2.34 0 2 C0 1.34 0 0.68 0 0 Z " fill="#E98141" transform="translate(24,57)"/>
<path d="M0 0 C0.66 0.33 1.32 0.66 2 1 C1.38125 1.721875 0.7625 2.44375 0.125 3.1875 C-3.22797565 8.09806362 -3.35037902 14.23888766 -4 20 C-4.33 20 -4.66 20 -5 20 C-5.18451025 8.47835991 -5.18451025 8.47835991 -4 3 C-3.01 3 -2.02 3 -1 3 C-0.67 2.01 -0.34 1.02 0 0 Z " fill="#E5874A" transform="translate(77,56)"/>
<path d="M0 0 C0.66 0.33 1.32 0.66 2 1 C-0.17220355 3.73277221 -1.85827965 5.72888915 -5.3359375 6.5546875 C-7.56274452 6.78650022 -9.76217118 6.94637012 -12 7 C-8.44008172 4.03340143 -4.34777457 1.618652 0 0 Z " fill="#EB8445" transform="translate(37,8)"/>
<path d="M0 0 C4.455 1.98 4.455 1.98 9 4 C7.71034824 5.37562854 6.37310707 6.70766393 5 8 C4.34 8 3.68 8 3 8 C0 2.25 0 2.25 0 0 Z " fill="#F47E35" transform="translate(31,39)"/>
<path d="M0 0 C1.32 0.33 2.64 0.66 4 1 C3.43628586 4.26954202 2.50037734 5.82575883 0 8 C-0.66 7.67 -1.32 7.34 -2 7 C-1.34 4.69 -0.68 2.38 0 0 Z " fill="#F17E38" transform="translate(107,79)"/>
<path d="M0 0 C3.4375 0.8125 3.4375 0.8125 7 2 C7.33 2.99 7.66 3.98 8 5 C8.66 5 9.32 5 10 5 C10 5.66 10 6.32 10 7 C5.58738468 5.79655946 2.95916118 4.52823064 0 1 C0 0.67 0 0.34 0 0 Z " fill="#ED7D39" transform="translate(11,66)"/>
<path d="M0 0 C0.70125 0.639375 1.4025 1.27875 2.125 1.9375 C5.22841233 4.16386102 7.24620139 4.65080943 11 5 C10.67 5.99 10.34 6.98 10 8 C5.60249328 7.49259538 3.13051078 4.91706686 0 2 C0 1.34 0 0.68 0 0 Z " fill="#E78444" transform="translate(79,81)"/>
<path d="M0 0 C1.65 0 3.3 0 5 0 C0.69230769 4.92307692 0.69230769 4.92307692 -2.8125 5.3125 C-3.8953125 5.1578125 -3.8953125 5.1578125 -5 5 C-5 4.34 -5 3.68 -5 3 C-3.35 2.67 -1.7 2.34 0 2 C0 1.34 0 0.68 0 0 Z " fill="#F2792C" transform="translate(41,29)"/>
<path d="M0 0 C0.66 0.33 1.32 0.66 2 1 C1.01 2.485 1.01 2.485 0 4 C0.66 4.33 1.32 4.66 2 5 C-1.75 6.125 -1.75 6.125 -4 5 C-5.32860925 4.64830932 -6.66158328 4.31229724 -8 4 C-6.71349294 3.30289269 -5.42059335 2.61757124 -4.125 1.9375 C-3.40570313 1.55464844 -2.68640625 1.17179687 -1.9453125 0.77734375 C-1.30335937 0.52082031 -0.66140625 0.26429687 0 0 Z " fill="#E48649" transform="translate(61,18)"/>
<path d="M0 0 C4.23429756 1.31061591 8.07407404 2.94356259 12 5 C7.74938644 6.41687119 5.28148375 5.19320039 1 4 C0.67 2.68 0.34 1.36 0 0 Z " fill="#EA8546" transform="translate(18,33)"/>
<path d="M0 0 C0.66 1.32 1.32 2.64 2 4 C0.02 5.32 -1.96 6.64 -4 8 C-4.66 7.67 -5.32 7.34 -6 7 C-4.6875 5.5 -4.6875 5.5 -3 4 C-2.01 4 -1.02 4 0 4 C0 2.68 0 1.36 0 0 Z " fill="#E5864B" transform="translate(73,77)"/>
<path d="M0 0 C-0.33 0.66 -0.66 1.32 -1 2 C-3.64860427 2.59355614 -6.29197322 2.74209269 -9 3 C-8.34 2.67 -7.68 2.34 -7 2 C-7 1.34 -7 0.68 -7 0 C-3.98968256 -0.93423645 -3.13349732 -1.04449911 0 0 Z " fill="#F1792E" transform="translate(60,23)"/>
<path d="M0 0 C2.97 0.495 2.97 0.495 6 1 C5.67 1.66 5.34 2.32 5 3 C2.67843403 3.40729228 0.3431213 3.74438677 -2 4 C-1.34 2.68 -0.68 1.36 0 0 Z " fill="#F3843B" transform="translate(99,86)"/>
<path d="M0 0 C1.98 0 3.96 0 6 0 C5.67 0.66 5.34 1.32 5 2 C2.6859378 2.73075648 0.35171131 3.40138258 -2 4 C-1.34 2.68 -0.68 1.36 0 0 Z " fill="#EF7D37" transform="translate(82,57)"/>
<path d="M0 0 C-2.62198774 2.15377564 -4.64404172 3.40072174 -8 4 C-8 3.01 -8 2.02 -8 1 C-5.07175348 0.02391783 -3.04386724 -0.08226668 0 0 Z " fill="#ED7E39" transform="translate(58,16)"/>
</svg>
